<?xml version="1.0" encoding="UTF-8" standalone="no"?>
<svg
   enable-background="new 0 0 921.3 921.3"
   height="700"
   viewBox="283.5 35.7 507.71112 1216.2872"
   width="292.14673"
   version="1.1"
   id="svg190"
   sodipodi:docname="Logo Oldham Athletic AFC.svg"
   inkscape:version="1.2 (dc2aeda, 2022-05-15)"
   xmlns:inkscape="http://www.inkscape.org/namespaces/inkscape"
   xmlns:sodipodi="http://sodipodi.sourceforge.net/DTD/sodipodi-0.dtd"
   xmlns="http://www.w3.org/2000/svg"
   xmlns:svg="http://www.w3.org/2000/svg">
  <defs
     id="defs194" />
  <sodipodi:namedview
     id="namedview192"
     pagecolor="#ffffff"
     bordercolor="#000000"
     borderopacity="0.25"
     inkscape:showpageshadow="2"
     inkscape:pageopacity="0.0"
     inkscape:pagecheckerboard="0"
     inkscape:deskcolor="#d1d1d1"
     showgrid="false"
     inkscape:zoom="0.68177285"
     inkscape:cx="117.34113"
     inkscape:cy="256.68373"
     inkscape:window-width="1440"
     inkscape:window-height="900"
     inkscape:window-x="0"
     inkscape:window-y="0"
     inkscape:window-maximized="0"
     inkscape:current-layer="svg190" />
  <g
     id="g958"
     transform="matrix(1.4301721,0,0,1.4301721,-121.95379,-15.433108)"
     style="stroke-width:0.699217">
    <path
       d="m 326.7,792.3 c -3.2,0 -6.1,-0.5 -8.6,-1.4 -2.5,-0.9 -4.6,-2.3 -6.3,-4.1 -1.7,-1.8 -3,-4 -3.9,-6.6 -0.9,-2.6 -1.4,-5.6 -1.4,-8.9 0,-2.5 0.2,-4.9 0.7,-7.3 0.5,-2.4 1.2,-4.6 2.2,-6.8 1,-2.1 2.2,-4.1 3.6,-5.9 1.5,-1.8 3.1,-3.3 5.1,-4.6 1.9,-1.3 4.1,-2.3 6.5,-3 2.4,-0.7 5,-1.1 7.9,-1.1 3.3,0 6.2,0.5 8.7,1.4 2.5,0.9 4.6,2.3 6.3,4.1 1.7,1.8 3,4 3.8,6.5 0.9,2.6 1.3,5.4 1.3,8.6 0,2.3 -0.2,4.6 -0.7,6.9 -0.4,2.3 -1.1,4.5 -2,6.7 -0.9,2.1 -2,4.1 -3.5,6 -1.4,1.9 -3.1,3.5 -5,4.9 -1.9,1.4 -4.1,2.5 -6.5,3.3 -2.4,0.9 -5.2,1.3 -8.2,1.3 z m 0.8,-7.8 c 2.4,0 4.5,-0.6 6.4,-1.7 1.9,-1.2 3.4,-2.7 4.7,-4.7 1.3,-1.9 2.2,-4.2 2.9,-6.7 0.7,-2.5 1,-5.2 1,-7.9 0,-1.8 -0.2,-3.5 -0.6,-5.1 -0.4,-1.6 -1,-3 -1.9,-4.2 -0.9,-1.2 -2,-2.1 -3.4,-2.8 -1.4,-0.7 -3,-1 -5,-1 -2.3,0 -4.4,0.5 -6.2,1.6 -1.8,1.1 -3.4,2.5 -4.7,4.4 -1.3,1.8 -2.3,4 -3,6.5 -0.7,2.5 -1.1,5.2 -1.1,8.1 0,2.1 0.2,4.1 0.7,5.7 0.5,1.7 1.1,3.1 2,4.3 0.9,1.2 2,2.1 3.4,2.7 1.4,0.5 3,0.8 4.8,0.8 z"
       id="path154"
       style="fill:#004a97;stroke-width:0.699217" />
    <path
       d="m 353.2,791.4 0.8,-6.9 h 5.9 l 4.5,-34.1 h -6 l 0.8,-6.9 H 381 l -0.8,6.9 H 374 l -4.5,34.1 H 383 l 1.4,-10.3 h 7.5 l -2.3,17.2 z"
       id="path156"
       style="fill:#004a97;stroke-width:0.699217" />
    <path
       d="m 394.5,791.4 0.9,-6.9 h 5.9 l 4.4,-34.1 h -6 l 0.8,-6.9 h 21.7 c 6.9,0 12,1.7 15.4,5 1.6,1.6 2.9,3.5 3.9,6 1,2.4 1.5,5.5 1.5,9.1 0,2.3 -0.2,4.4 -0.6,6.5 -0.4,2.1 -1,4.1 -1.7,5.9 -0.7,1.9 -1.6,3.6 -2.7,5.1 -1.1,1.6 -2.3,3 -3.7,4.2 -2.6,2.3 -5.5,3.9 -8.7,4.8 -3.2,0.9 -6.7,1.4 -10.6,1.4 h -20.5 z m 20.9,-6.9 c 1.5,0 2.9,-0.1 4.2,-0.3 1.2,-0.2 2.4,-0.5 3.4,-0.9 1,-0.4 2,-0.9 2.8,-1.5 0.8,-0.6 1.7,-1.4 2.4,-2.2 0.8,-0.9 1.5,-1.9 2.1,-3.1 0.6,-1.2 1.1,-2.5 1.5,-3.8 0.4,-1.4 0.7,-2.8 0.9,-4.3 0.2,-1.5 0.3,-3 0.3,-4.5 0,-2.2 -0.3,-4.1 -0.8,-5.8 -0.5,-1.7 -1.2,-3.1 -2.1,-4.1 -1,-1.2 -2.2,-2.1 -3.6,-2.6 -1.4,-0.6 -3.2,-0.8 -5.4,-0.8 h -5.8 l -4.4,34.1 h 4.5 z"
       id="path158"
       style="fill:#004a97;stroke-width:0.699217" />
    <path
       d="m 472.9,791.4 0.9,-6.9 h 5.6 L 481.3,770 H 462 l -1.9,14.5 h 5.6 l -0.8,6.9 h -21.1 l 0.8,-6.9 h 6 l 4.4,-34.1 h -6 l 0.8,-6.9 h 21.3 l -0.9,6.9 h -5.6 l -1.7,12.6 h 19.3 l 1.7,-12.6 h -5.7 l 0.8,-6.9 h 21.1 l -0.8,6.9 h -5.9 l -4.5,34.1 h 6 l -0.9,6.9 z"
       id="path160"
       style="fill:#004a97;stroke-width:0.699217" />
    <path
       d="m 525.5,791.4 0.8,-6.9 h 5.2 l -1.7,-8.3 H 515 l -3.7,8.3 h 5.2 l -0.9,6.9 h -17.8 l 0.8,-7 h 4.1 l 15.7,-34 h -5.6 l 0.8,-7 h 19.2 l 8.6,41 h 4.3 l -0.8,7 z m 0,-39.7 -7.9,18.1 h 11.3 z"
       id="path162"
       style="fill:#004a97;stroke-width:0.699217" />
    <path
       d="m 590.9,791.4 0.8,-6.9 h 5 l 3,-32.5 -16.2,39.4 h -9.4 l -6,-39.4 -5.5,32.5 h 5.2 l -0.8,6.9 h -18.7 l 0.8,-6.9 h 5.4 l 6.1,-34.1 h -5.4 l 0.8,-6.9 h 19.3 l 5.4,35.4 14.7,-35.4 h 19.8 l -0.9,7 H 609 l -2.9,34 h 5.7 l -0.8,6.9 z"
       id="path164"
       style="fill:#004a97;stroke-width:0.699217" />
    <path
       d="m 311.2,848.1 0.8,-6.9 h 5.2 l -1.7,-8.3 h -14.8 l -3.7,8.3 h 5.2 l -0.9,6.9 h -17.8 l 0.8,-7 h 4.1 l 15.7,-34 h -5.6 l 0.8,-7 h 19.2 l 8.6,41 h 4.3 l -0.8,7 z m 0,-39.7 -7.9,18.1 h 11.3 z"
       id="path166"
       style="fill:#004a97;stroke-width:0.699217" />
    <path
       d="m 338.7,848.1 0.8,-6.9 h 6 l 4.4,-34.2 h -8.5 l -1,8 H 333 l 1.9,-14.9 h 41.2 L 374.3,815 H 367 l 1,-8 h -8.5 l -4.5,34.2 h 6.1 l -0.8,6.9 z"
       id="path168"
       style="fill:#004a97;stroke-width:0.699217" />
    <path
       d="m 403.7,848.1 0.9,-6.9 h 5.6 l 1.9,-14.5 h -19.3 l -1.9,14.5 h 5.6 l -0.8,6.9 h -21.1 l 0.8,-6.9 h 6 l 4.4,-34.1 h -6 l 0.8,-6.9 h 21.3 l -0.9,6.9 h -5.6 l -1.7,12.6 H 413 l 1.7,-12.6 H 409 l 0.8,-6.9 H 431 l -0.8,6.9 h -5.9 l -4.5,34.1 h 6 l -0.9,6.9 z"
       id="path170"
       style="fill:#004a97;stroke-width:0.699217" />
    <path
       d="m 429.5,848.1 0.8,-6.9 h 5.9 l 4.5,-34.1 h -6 l 0.8,-6.9 h 21.8 l -0.8,6.9 h -6.2 l -4.5,34.1 h 13.5 l 1.4,-10.3 h 7.5 l -2.3,17.2 z"
       id="path172"
       style="fill:#004a97;stroke-width:0.699217" />
    <path
       d="m 470.8,848.1 0.9,-6.9 h 6 l 4.3,-34.1 h -6 l 0.9,-6.9 h 37.2 l -1.7,13.3 h -7.3 l 0.8,-6.3 h -14.4 l -1.7,12.7 h 6.7 l 0.6,-4.1 h 6.5 l -2,15.6 H 495 l 0.7,-4.6 h -6.6 l -1.8,14.5 H 503 l 1.1,-8.6 h 7.4 l -2,15.6 h -38.7 z"
       id="path174"
       style="fill:#004a97;stroke-width:0.699217" />
    <path
       d="m 523.5,848.1 0.8,-6.9 h 6 l 4.4,-34.2 h -8.5 l -1,8 h -7.3 l 1.9,-14.9 H 561 l -1.8,14.9 h -7.3 l 1,-8 h -8.5 l -4.5,34.2 h 6.1 l -0.8,6.9 z"
       id="path176"
       style="fill:#004a97;stroke-width:0.699217" />
    <path
       d="m 559.4,848.1 0.8,-6.9 h 5.9 l 4.5,-34.1 h -5.9 l 0.8,-6.9 H 587 l -0.8,6.9 h -6 l -4.5,34.1 h 6 l -0.8,6.9 z"
       id="path178"
       style="fill:#004a97;stroke-width:0.699217" />
    <path
       d="m 627.6,839 c -0.9,1.1 -2,2.3 -3.2,3.4 -1.2,1.2 -2.6,2.3 -4.3,3.2 -1.6,1 -3.5,1.7 -5.6,2.4 -2.1,0.6 -4.4,0.9 -7,0.9 -3.5,0 -6.5,-0.6 -9,-1.7 -2.5,-1.1 -4.6,-2.6 -6.3,-4.6 -1.6,-1.9 -2.9,-4.2 -3.7,-6.8 -0.8,-2.6 -1.2,-5.4 -1.2,-8.3 0,-4.1 0.6,-7.9 1.8,-11.3 1.2,-3.5 2.9,-6.4 5,-9 2.1,-2.5 4.7,-4.5 7.6,-5.9 2.9,-1.4 6.1,-2.1 9.6,-2.1 1.7,0 3.2,0.2 4.6,0.5 1.3,0.4 2.5,0.8 3.5,1.4 1,0.6 1.8,1.3 2.5,2 0.7,0.8 1.2,1.5 1.6,2.3 l 0.7,-5.5 h 7.6 L 629.5,818 H 622 c 0,-1.3 -0.2,-2.7 -0.5,-4 -0.3,-1.4 -0.8,-2.6 -1.6,-3.7 -0.8,-1.1 -1.8,-2 -3,-2.6 -1.3,-0.7 -2.8,-1 -4.7,-1 -2.1,0 -4.1,0.5 -5.9,1.6 -1.8,1 -3.3,2.4 -4.6,4.2 -1.3,1.8 -2.3,3.8 -3,6.2 -0.7,2.4 -1.1,4.9 -1.1,7.6 0,2.5 0.3,4.6 0.9,6.4 0.6,1.8 1.4,3.3 2.5,4.5 1.1,1.2 2.3,2.1 3.7,2.6 1.4,0.6 3,0.8 4.7,0.8 1.6,0 3,-0.2 4.4,-0.7 1.4,-0.5 2.6,-1 3.8,-1.8 1.1,-0.7 2.2,-1.5 3.1,-2.4 0.9,-0.9 1.7,-1.8 2.3,-2.6 z"
       id="path180"
       style="fill:#004a97;stroke-width:0.699217" />
    <path
       d="m 438.7,885.9 0.3,-2.1 h 3 l -1.2,-5.7 h -8.9 l -2.6,5.7 h 3 l -0.3,2.1 h -7.8 l 0.3,-2.1 h 2.2 L 436,864 h -3.1 l 0.3,-2.1 h 6.9 l 4.8,21.9 h 2.4 l -0.3,2.1 z m -0.6,-21.4 -5.3,11.6 h 7.6 z"
       id="path182"
       style="fill:#004a97;stroke-width:0.699217" />
    <path
       d="m 449.3,885.9 0.3,-2.1 h 3.2 l 2.6,-19.9 h -3.2 l 0.3,-2 h 17.3 l -0.9,6.5 h -2.3 l 0.6,-4.5 h -9 l -1.2,8.9 h 5.1 l 0.5,-3.2 h 2.2 l -1.1,8.6 h -2.2 l 0.4,-3.4 h -5.1 l -1.1,8.9 h 3.4 l -0.3,2.1 h -9.5 z"
       id="path184"
       style="fill:#004a97;stroke-width:0.699217" />
    <path
       d="m 489.8,881.1 c -0.4,0.5 -0.8,1.1 -1.4,1.7 -0.5,0.6 -1.2,1.2 -1.9,1.7 -0.8,0.5 -1.6,0.9 -2.7,1.3 -1,0.3 -2.2,0.5 -3.5,0.5 -1.4,0 -2.7,-0.2 -3.8,-0.7 -1.1,-0.5 -2.1,-1.2 -2.9,-2 -0.8,-0.9 -1.4,-2 -1.8,-3.2 -0.4,-1.3 -0.6,-2.7 -0.6,-4.2 0,-1.3 0.1,-2.6 0.4,-3.8 0.3,-1.2 0.6,-2.4 1.1,-3.5 0.5,-1.1 1.1,-2.1 1.8,-3 0.7,-0.9 1.5,-1.6 2.4,-2.3 0.9,-0.6 1.8,-1.1 2.9,-1.5 1,-0.4 2.2,-0.5 3.3,-0.5 0.9,0 1.7,0.1 2.4,0.3 0.7,0.2 1.3,0.5 1.9,0.8 0.5,0.3 1,0.7 1.3,1.2 0.4,0.4 0.6,0.9 0.8,1.4 l 0.4,-3.3 h 2.3 l -1.1,8.4 h -2.3 c 0,-0.6 -0.1,-1.3 -0.2,-2.1 -0.2,-0.8 -0.5,-1.5 -0.9,-2.1 -0.4,-0.7 -1,-1.2 -1.8,-1.7 -0.8,-0.4 -1.8,-0.7 -2.9,-0.7 -0.9,0 -1.7,0.2 -2.5,0.5 -0.8,0.3 -1.5,0.7 -2.1,1.3 -0.7,0.5 -1.2,1.2 -1.7,1.9 -0.5,0.8 -0.9,1.6 -1.3,2.5 -0.4,0.9 -0.6,1.8 -0.8,2.8 -0.2,1 -0.3,2 -0.3,3 0,1.4 0.2,2.6 0.5,3.7 0.4,1 0.8,1.9 1.4,2.6 0.6,0.7 1.3,1.2 2.1,1.5 0.8,0.3 1.7,0.5 2.6,0.5 0.9,0 1.7,-0.1 2.5,-0.4 0.8,-0.3 1.4,-0.6 2,-1.1 0.6,-0.4 1.1,-0.9 1.6,-1.4 0.4,-0.5 0.8,-1 1.1,-1.5 z"
       id="path186"
       style="fill:#004a97;stroke-width:0.699217" />
  </g>
  <g
     id="g986"
     transform="matrix(1.4301721,0,0,1.4301721,-121.95379,-15.433108)"
     style="stroke-width:0.699217">
    <path
       d="m 636.4,417 -0.6,-3 c -0.1,-0.3 -7.1,-33.6 -25.3,-77.5 -10.7,-25.7 -23,-50 -36.7,-72.2 -17.2,-27.8 -36.5,-52.4 -57.6,-73.2 -0.7,-0.7 -2.1,-2.5 -4.1,-7 -3.3,-7.4 -4.9,-15.4 -4.9,-23.8 v -43.8 c 0,-11.9 -3,-23.7 -8.6,-34.1 l -1.6,-3 c 1.8,-4.9 6.3,-15.1 13.7,-21.5 l 1.8,-1.6 4.9,-4.3 -4.9,-4.3 -10.8,-9.7 -2.5,-2.3 -3.2,1.1 -1.2,0.4 c -0.3,0.1 -32.9,11.2 -74.3,11.2 -41.1,0 -69.5,-10.8 -69.7,-10.9 l -1.1,-0.4 -3.1,-1.2 -2.6,2 -11.7,9.1 -5.6,4.3 5.4,4.6 2,1.7 c 7.5,6.4 12.1,16.8 14,21.7 l -1.6,3 c -5.6,10.4 -8.6,22.2 -8.6,34.1 v 82.5 c 0,44.3 18.8,86.7 51.5,116.2 12.4,11.2 26.7,21.8 42.6,31.7 3.2,9.1 7.9,24.8 7.9,39.1 0,12.1 -4.6,21.1 -8.4,26.6 -1.1,1.6 -2.9,2.5 -4.8,2.5 -1.6,0 -3,-0.6 -4.1,-1.8 0,0 -0.1,-0.1 -0.1,-0.1 l -0.9,-1.1 -2.6,-3.3 -4,1.5 -1.4,0.6 c -23.4,8.9 -34.3,25 -38.9,34.8 -17.7,12.1 -32.9,28.2 -43.8,46.6 -1.9,3.1 -3.6,6.4 -5.3,9.7 -7.9,15.9 -12.9,32.9 -14.7,50.5 -0.3,2.8 -0.5,5.6 -0.6,8.4 -0.1,2.3 -0.2,4.7 -0.2,7.1 0,2.4 0.1,4.8 0.2,7.1 0.1,2.8 0.3,5.6 0.6,8.4 1.8,17.6 6.8,34.6 14.7,50.5 1.7,3.3 3.5,6.6 5.3,9.7 11,18.4 26.1,34.5 43.9,46.6 2.4,1.7 5,3.3 7.6,4.9 8.7,5.2 18,9.5 27.6,12.8 4.2,1.4 8.5,2.7 12.9,3.8 2.4,0.6 4.9,1.1 7.5,1.6 2.8,0.5 5.7,1 8.5,1.4 6.3,0.8 12.7,1.2 19.1,1.2 6.4,0 12.8,-0.4 19.1,-1.2 2.8,-0.4 5.7,-0.8 8.5,-1.3 2.5,-0.5 5,-1 7.5,-1.6 4.3,-1 8.7,-2.3 12.9,-3.8 9.6,-3.3 18.8,-7.6 27.6,-12.8 2.6,-1.6 5.2,-3.2 7.6,-4.9 17.7,-12.1 32.9,-28.2 43.8,-46.6 1.9,-3.1 3.7,-6.4 5.3,-9.7 7.9,-15.9 12.9,-32.8 14.7,-50.5 0.3,-2.8 0.5,-5.6 0.6,-8.4 0.1,-2.3 0.2,-4.7 0.2,-7.1 0,-2.4 -0.1,-4.8 -0.2,-7.1 -0.1,-2.8 -0.3,-5.6 -0.6,-8.3 -1.8,-17.6 -6.8,-34.6 -14.7,-50.5 -1.7,-3.3 -3.4,-6.6 -5.3,-9.7 -11,-18.4 -26.1,-34.5 -43.9,-46.6 -1,-0.7 -2.1,-1.4 -3.3,-2.2 -5.9,-6.4 -9.8,-13.7 -11.6,-17.5 -1.4,-2.9 -3.7,-5.3 -6.6,-6.7 2.6,-6 9.4,-14.1 18.8,-22.5 47.8,19.7 88.3,26.3 88.8,26.4 l 3,0.5 8.3,1.3 z m -8.6,0.7 c -0.4,-0.1 -42.2,-6.9 -90.7,-27.4 -6.5,5.5 -23.1,20.4 -24.6,32.1 0,0.2 0.1,0.5 0.3,0.6 1,0.5 2.1,1 3,1.3 2.1,0.7 3.9,2.3 4.9,4.4 2,4.2 6.4,12.3 13.1,19.4 1.4,0.9 2.6,1.7 3.8,2.5 17,11.6 31.6,27.1 42.2,44.8 1.8,3 3.5,6.1 5.1,9.3 7.6,15.2 12.4,31.6 14.1,48.5 0.3,2.7 0.5,5.4 0.6,8 0.1,2.2 0.2,4.5 0.2,6.8 0,2.3 -0.1,4.6 -0.2,6.8 -0.1,2.7 -0.3,5.4 -0.6,8 -1.8,16.9 -6.5,33.2 -14.1,48.5 -1.6,3.2 -3.3,6.3 -5.1,9.3 -10.6,17.7 -25.1,33.2 -42.1,44.8 -2.4,1.6 -4.8,3.2 -7.3,4.7 -8.4,5 -17.3,9.2 -26.5,12.3 -4,1.4 -8.2,2.6 -12.4,3.6 -2.4,0.6 -4.8,1.1 -7.2,1.6 -2.7,0.5 -5.4,0.9 -8.2,1.3 -6,0.8 -12.2,1.2 -18.3,1.2 -6.1,0 -12.3,-0.4 -18.4,-1.2 -2.7,-0.3 -5.4,-0.8 -8.1,-1.3 -2.5,-0.5 -4.9,-1 -7.2,-1.6 -4.2,-1 -8.4,-2.2 -12.4,-3.6 -9.2,-3.1 -18.1,-7.3 -26.5,-12.3 -2.5,-1.5 -5,-3.1 -7.3,-4.7 -17,-11.6 -31.6,-27.1 -42.2,-44.8 -1.8,-3 -3.5,-6.1 -5.1,-9.3 -7.6,-15.2 -12.4,-31.6 -14.1,-48.5 -0.3,-2.7 -0.5,-5.4 -0.6,-8 -0.1,-2.2 -0.2,-4.5 -0.2,-6.8 0,-2.3 0.1,-4.6 0.2,-6.8 0.1,-2.7 0.3,-5.4 0.6,-8 1.8,-16.9 6.5,-33.2 14.1,-48.5 1.6,-3.2 3.3,-6.3 5.1,-9.3 10.6,-17.7 25.1,-33.2 42.2,-44.8 0.4,-0.3 0.8,-0.5 1.2,-0.8 h 0.1 c 4,-9 13.8,-24.7 36.4,-33.3 l 1.4,-0.6 1,1.2 c 0,0 0.1,0.2 0.3,0.4 2.2,2.3 5.1,3.6 8.3,3.6 1.9,0 3.7,-0.5 5.4,-1.3 1.6,-0.9 3.1,-2.1 4.2,-3.7 4.3,-6.2 9.5,-16.4 9.5,-29.9 0,-16.1 -5.5,-33.6 -8.9,-42.9 -16.3,-10 -30.9,-20.8 -43.5,-32.1 C 361.8,282.8 343.7,242 343.7,199.3 v -82.5 c 0,-10.9 2.7,-21.7 7.9,-31.3 l 2.9,-5.3 C 353.3,76.7 348.1,62.3 338,53.6 l -2,-1.7 11.7,-9.1 1.1,0.4 c 0.3,0.1 29.3,11.2 71.8,11.2 42.6,0 75.8,-11.4 76.2,-11.5 l 1.2,-0.4 10.8,9.7 -1.8,1.6 c -9.9,8.7 -15,22.8 -16.2,26.3 l 2.9,5.3 c 5.2,9.6 7.9,20.4 7.9,31.3 v 43.8 c 0,9.1 1.8,17.9 5.4,26.1 1.8,4.1 3.6,7 5.3,8.7 20.7,20.4 39.8,44.7 56.7,72.1 13.5,22 25.8,46 36.3,71.4 17.9,43.3 24.9,76.1 25,76.4 l 0.6,3 z"
       fill="#fff"
       id="path132"
       style="fill:#ffffff;stroke-width:0.699217" />
    <path
       d="m 537,390.3 c 48.5,20.5 90.3,27.3 90.7,27.4 l 3,0.5 -0.6,-3 c -0.1,-0.3 -7,-33.2 -25,-76.4 -10.5,-25.4 -22.8,-49.4 -36.3,-71.4 -16.9,-27.4 -36,-51.7 -56.7,-72.1 -1.7,-1.7 -3.5,-4.7 -5.3,-8.7 -3.6,-8.2 -5.4,-17 -5.4,-26.1 v -43.8 c 0,-10.9 -2.7,-21.7 -7.9,-31.3 l -2.9,-5.3 c 1.2,-3.5 6.3,-17.6 16.2,-26.3 l 1.8,-1.6 -10.8,-9.7 -1.2,0.4 c -0.3,0.1 -33.5,11.5 -76.2,11.5 -42.5,0 -71.5,-11.1 -71.8,-11.2 l -1.1,-0.4 -11.7,9.1 2,1.7 c 10.1,8.7 15.3,23.1 16.5,26.6 l -2.9,5.3 c -5.2,9.6 -7.9,20.4 -7.9,31.3 v 82.5 c 0,42.7 18.1,83.5 49.6,111.9 12.6,11.3 27.2,22.1 43.5,32.1 3.4,9.4 8.9,26.9 8.9,42.9 0,13.6 -5.1,23.8 -9.5,29.9 -1.1,1.6 -2.5,2.8 -4.2,3.7 -1.6,0.9 -3.5,1.3 -5.4,1.3 -3.2,0 -6.1,-1.3 -8.3,-3.6 -0.2,-0.2 -0.3,-0.3 -0.3,-0.4 l -1,-1.2 -1.4,0.6 c -22.6,8.6 -32.4,24.3 -36.4,33.3 h -0.1 c -0.4,0.3 -0.8,0.5 -1.2,0.8 -17,11.6 -31.6,27.1 -42.2,44.8 -1.8,3 -3.5,6.1 -5.1,9.3 -7.6,15.2 -12.4,31.6 -14.1,48.5 -0.3,2.7 -0.5,5.4 -0.6,8 -0.1,2.2 -0.2,4.5 -0.2,6.8 0,2.3 0.1,4.6 0.2,6.8 0.1,2.7 0.3,5.4 0.6,8 1.8,16.9 6.5,33.3 14.1,48.5 1.6,3.2 3.3,6.3 5.1,9.3 10.6,17.7 25.1,33.2 42.2,44.8 2.3,1.6 4.8,3.2 7.3,4.7 8.4,5 17.3,9.1 26.5,12.3 4,1.4 8.2,2.6 12.4,3.6 2.3,0.6 4.7,1.1 7.2,1.6 2.7,0.5 5.5,1 8.1,1.3 6.1,0.8 12.2,1.2 18.4,1.2 6.1,0 12.3,-0.4 18.3,-1.2 2.7,-0.4 5.5,-0.8 8.2,-1.3 2.4,-0.5 4.8,-1 7.2,-1.6 4.2,-1 8.3,-2.2 12.4,-3.6 9.2,-3.1 18.1,-7.3 26.5,-12.3 2.5,-1.5 5,-3.1 7.3,-4.7 17,-11.6 31.6,-27.1 42.1,-44.8 1.8,-3 3.5,-6.1 5.1,-9.3 7.6,-15.2 12.4,-31.6 14.1,-48.5 0.3,-2.6 0.5,-5.3 0.6,-8 0.1,-2.2 0.2,-4.5 0.2,-6.8 0,-2.3 -0.1,-4.6 -0.2,-6.8 -0.1,-2.7 -0.3,-5.3 -0.6,-8 -1.8,-16.9 -6.5,-33.2 -14.1,-48.5 -1.6,-3.2 -3.3,-6.3 -5.1,-9.3 -10.6,-17.7 -25.1,-33.2 -42.2,-44.8 -1.1,-0.8 -2.4,-1.6 -3.8,-2.5 -6.7,-7.1 -11.1,-15.2 -13.1,-19.4 -1,-2.1 -2.8,-3.7 -4.9,-4.4 -0.9,-0.3 -1.9,-0.7 -3,-1.3 -0.2,-0.1 -0.3,-0.3 -0.3,-0.6 1.7,-11.6 18.3,-26.6 24.7,-32.1 z m -44.5,12.1 c -1.2,8.3 -8.4,14.6 -16.8,14.6 -0.6,0 -1.2,0 -1.7,-0.1 12,-16.1 13.3,-36.8 12.9,-47.8 1.4,0.6 2.8,1.2 4.2,1.8 2.5,9.9 3,20.5 1.4,31.5 z"
       fill="#004a97"
       id="path134"
       style="stroke-width:0.488904" />
    <g
       id="g514"
       style="stroke-width:0.699217">
      <path
         d="m 492.5,402.4 c -1.2,8.3 -8.4,14.6 -16.8,14.6 -0.6,0 -1.2,0 -1.7,-0.1 12,-16.1 13.3,-36.8 12.9,-47.8 1.4,0.6 2.8,1.2 4.2,1.8 2.5,9.9 3,20.5 1.4,31.5 z"
         id="path136"
         style="fill:#ffffff;stroke-width:0.699217" />
      <path
         d="m 414.4,144.1 c 0,0 -1,0.4 -2.8,1.1 -0.9,-7.5 -3.1,-14.8 -5.1,-20.5 -3.8,-10.6 -12.3,-19 -23,-22.6 -6.9,-2.3 -11.1,-1.5 -11.1,-1.5 0,0.2 -0.1,0.4 -0.1,0.6 -1.7,12.1 7.1,23.1 19.1,24.5 2.2,0.3 3.7,0.3 3.7,0.3 6.1,7.3 7.6,15.4 7.7,21.5 -8,1.5 -18.8,1.9 -28.1,-3.3 -17.3,-9.7 -12.1,-37.5 -6.8,-45.9 4.9,-7.8 2.9,-14.7 2.9,-14.7 0,0 43.6,18.8 43.6,60.5 z"
         id="path138"
         style="fill:#ffffff;stroke-width:0.699217" />
      <path
         d="m 470.9,144.1 c -9.3,5.2 -20.1,4.8 -28.1,3.3 0.1,-6.1 1.6,-14.2 7.7,-21.5 0,0 1.5,-0.1 3.7,-0.3 12.1,-1.4 20.8,-12.5 19.1,-24.5 0,-0.2 -0.1,-0.4 -0.1,-0.6 0,0 -4.2,-0.8 -11.1,1.5 -10.7,3.6 -19.2,12 -23,22.6 -2,5.7 -4.2,13 -5.1,20.5 -1.8,-0.6 -2.8,-1.1 -2.8,-1.1 0,-41.7 43.7,-60.5 43.7,-60.5 0,0 -2,6.8 2.9,14.7 5.2,8.3 10.4,36.1 -6.9,45.9 z"
         id="path140"
         style="fill:#ffffff;stroke-width:0.699217" />
      <path
         d="m 403.7,299.3 c 9.1,8.2 19.5,16.2 30.8,23.8 -1.7,-1.7 -3.5,-3.4 -5.2,-5.2 -14.5,-15.1 -27,-32.4 -36.3,-52.2 -12.2,-26 -16,-55.3 3,-76.8 -10.1,-3 -25.3,-9.7 -36.6,-25.1 V 199 c -0.1,38.3 16.1,74.9 44.3,100.3 z"
         id="path142"
         style="fill:#ffffff;stroke-width:0.699217" />
      <path
         d="m 439.2,308.4 c 20,20.9 57.4,50.7 121.4,73.9 12.2,4.4 23.6,8 33.5,10.7 C 553.6,376 464.6,331.7 426,258.6 c 36.5,48.4 97.1,77.3 143.8,93.3 l 0.2,-0.4 c -39.2,-22.2 -82.3,-54.6 -107.2,-98.3 24.3,21.2 54.3,35.7 84.3,45.4 0,0 -97.5,-81.3 -55.3,-79.5 10,0.4 27.6,13 43.2,25.9 -10.8,-14.5 -22.9,-28.8 -36.5,-42.1 -17.1,-16.8 -34.3,-25.3 -50.9,-25.3 -18.9,0 -32.8,11.3 -39.3,18 -0.5,0.5 -1,1.1 -1.5,1.6 -6.9,7.6 -10.3,16.6 -10.3,27.7 0,10.4 3.1,22.4 8.9,34.8 8.1,17.5 19.4,33.8 33.8,48.7 z"
         id="path144"
         style="fill:#ffffff;stroke-width:0.699217" />
      <path
         d="m 422.7,166.3 c 0,-7.1 6.5,-15.2 6.5,-15.2 l -6.5,-7.5 -6.5,7.5 c 0,0 6.5,8.1 6.5,15.2 z"
         id="path146"
         style="fill:#ffffff;stroke-width:0.699217" />
    </g>
    <g
       id="g939"
       style="stroke-width:0.699217">
      <path
         style="fill:#ffffff;stroke-width:0.699217"
         d="m 583.6,559.1 c -0.2,-2.5 -0.4,-5 -0.8,-7.5 -2.1,-16.5 -7.5,-32 -15.4,-45.8 -1.7,-3 -3.5,-5.9 -5.4,-8.7 -8,-11.8 -18,-22.2 -29.5,-30.6 V 492 c 1.3,1.9 2.7,3.9 3.9,5.9 8.5,13.6 14.5,28.9 17.6,45.2 0.5,2.5 0.9,4.9 1.2,7.4 0.8,5.7 1.1,11.6 1.1,17.5 0,5.9 -0.4,11.8 -1.1,17.5 -0.3,2.5 -0.7,5 -1.2,7.4 -3.1,16.3 -9.2,31.6 -17.6,45.2 -1.2,2 -2.5,4 -3.9,5.9 v 25.6 C 544,661.1 554,650.8 562,639 c 1.9,-2.8 3.7,-5.7 5.4,-8.7 7.9,-13.9 13.2,-29.3 15.4,-45.8 0.3,-2.5 0.6,-5 0.8,-7.5 0.2,-2.9 0.3,-5.9 0.3,-8.9 0,-3.1 -0.1,-6.1 -0.3,-9 z"
         id="path534" />
      <path
         style="fill:#ffffff;stroke-width:0.699217"
         d="m 457.6,604.8 c -30.3,0 -60,-3.4 -89,-10.1 2.8,13 7.6,25.3 14.2,36.5 1.7,3 3.6,5.9 5.5,8.7 0.5,0.1 0.9,0.2 1.4,0.2 14.9,2.7 30,4.4 45.3,5.3 2.3,0.1 4.6,0.3 6.9,0.3 5.2,0.2 10.5,0.3 15.8,0.3 5.3,0 10.5,-0.1 15.8,-0.3 l 6.9,-0.3 c 15.3,-0.9 30.4,-2.6 45.3,-5.3 0.4,-0.1 0.9,-0.2 1.3,-0.2 2,-2.8 3.8,-5.7 5.5,-8.7 6.5,-11.2 11.3,-23.5 14.1,-36.5 -28.9,6.7 -58.7,10.1 -89,10.1 z"
         id="path532" />
      <path
         style="fill:#ffffff;stroke-width:0.699217"
         d="m 520.9,647.9 c -13,2.1 -26.2,3.6 -39.4,4.3 l 4.3,25.4 1.2,7.2 1,5.7 c 13.5,-3.4 26.2,-8.9 37.6,-16.2 v -27.2 c -1.5,0.3 -3.1,0.6 -4.7,0.8 z"
         id="path530" />
      <path
         style="fill:#ffffff;stroke-width:0.699217"
         d="m 480.7,688.1 -1.2,-7.1 -4.9,-28.4 c -5.6,0.2 -11.3,0.4 -16.9,0.4 -5.7,0 -11.3,-0.1 -16.9,-0.4 l -4.9,28.4 -1.2,7.1 -0.7,3.9 c 2.1,0.4 4.3,0.8 6.5,1 2.8,0.4 5.6,0.7 8.4,0.9 2.9,0.2 5.8,0.3 8.8,0.3 3,0 5.9,-0.1 8.8,-0.3 2.8,-0.2 5.7,-0.5 8.4,-0.9 2.2,-0.3 4.3,-0.6 6.5,-1.1 z"
         id="path528" />
      <path
         style="fill:#ffffff;stroke-width:0.699217"
         d="m 394.4,647.9 c -1.6,-0.3 -3.1,-0.5 -4.7,-0.8 v 27.2 c 11.4,7.3 24.1,12.8 37.6,16.2 l 1,-5.7 1.2,-7.2 4.3,-25.4 c -13.3,-0.7 -26.4,-2.2 -39.4,-4.3 z"
         id="path526" />
      <path
         style="fill:#ffffff;stroke-width:0.699217"
         d="m 378.9,638.1 c -8.5,-13.6 -14.5,-28.9 -17.6,-45.2 -0.5,-2.5 -0.9,-4.9 -1.2,-7.4 -0.8,-5.7 -1.1,-11.6 -1.1,-17.5 0,-5.9 0.4,-11.8 1.1,-17.5 0.3,-2.5 0.7,-5 1.2,-7.4 3.1,-16.3 9.2,-31.6 17.6,-45.2 1.2,-2 2.5,-4 3.9,-5.9 v -25.6 c -11.5,8.5 -21.5,18.8 -29.5,30.6 -1.9,2.8 -3.7,5.7 -5.4,8.7 -7.9,13.9 -13.2,29.4 -15.4,45.8 -0.3,2.5 -0.6,5 -0.8,7.5 -0.2,2.9 -0.3,5.9 -0.3,8.9 0,3 0.1,6 0.3,8.9 0.2,2.5 0.4,5 0.8,7.5 2.1,16.5 7.5,32 15.4,45.8 1.7,3 3.5,5.9 5.4,8.7 8.1,11.8 18,22.2 29.5,30.6 V 644 c -1.4,-1.9 -2.7,-3.9 -3.9,-5.9 z"
         id="path524" />
      <path
         style="fill:#ffffff;stroke-width:0.699217"
         d="m 532.5,504.8 c -1.7,-3 -3.6,-5.9 -5.5,-8.7 -0.5,-0.1 -0.9,-0.2 -1.4,-0.2 -14.9,-2.7 -30,-4.4 -45.3,-5.3 -2.3,-0.1 -4.6,-0.3 -6.9,-0.3 -5.2,-0.2 -10.5,-0.3 -15.8,-0.3 -5.3,0 -10.5,0.1 -15.8,0.3 -2.3,0.1 -4.6,0.2 -6.9,0.3 -15.3,0.9 -30.4,2.6 -45.3,5.3 -0.4,0.1 -0.9,0.2 -1.3,0.2 -2,2.8 -3.8,5.7 -5.5,8.7 -6.5,11.2 -11.3,23.5 -14.1,36.5 29,-6.7 58.7,-10.1 89,-10.1 30.3,0 60,3.4 89,10.1 -2.9,-13 -7.7,-25.3 -14.2,-36.5 z"
         id="path522" />
      <path
         style="fill:#ffffff;stroke-width:0.699217"
         d="m 429.4,458.4 -1.2,-7.2 -1,-5.7 c -13.5,3.4 -26.2,8.9 -37.6,16.2 v 27.2 c 1.6,-0.3 3.2,-0.5 4.7,-0.8 13,-2.1 26.2,-3.6 39.4,-4.3 z"
         id="path520" />
      <path
         style="fill:#ffffff;stroke-width:0.699217"
         d="m 474.8,442.9 c -2.8,-0.4 -5.6,-0.7 -8.4,-0.9 -2.9,-0.2 -5.8,-0.3 -8.8,-0.3 -3,0 -5.9,0.1 -8.8,0.3 -2.8,0.2 -5.6,0.5 -8.4,0.9 -2.2,0.3 -4.3,0.6 -6.5,1.1 l 0.7,3.9 1.2,7.1 4.9,28.4 c 5.6,-0.2 11.3,-0.4 16.9,-0.4 5.7,0 11.3,0.1 16.9,0.4 l 4.9,-28.4 1.2,-7.1 0.7,-3.9 c -2.1,-0.4 -4.3,-0.8 -6.5,-1.1 z"
         id="path518" />
      <path
         style="fill:#ffffff;stroke-width:0.699217"
         d="m 488,445.4 -1,5.7 -1.2,7.2 -4.3,25.4 c 13.3,0.8 26.4,2.2 39.4,4.3 1.6,0.3 3.1,0.5 4.7,0.8 V 461.6 C 514.2,454.3 501.5,448.8 488,445.4 Z"
         id="path148" />
      <path
         style="fill:#ffffff;stroke-width:0.699217"
         d="m 548,548.7 c -29.4,-7.1 -59.6,-10.6 -90.4,-10.6 -30.8,0 -61,3.6 -90.4,10.6 -1,6.3 -1.5,12.7 -1.5,19.3 0,6.6 0.5,13 1.5,19.3 29.4,7.1 59.6,10.6 90.4,10.6 30.8,0 61,-3.6 90.4,-10.6 1,-6.3 1.5,-12.7 1.5,-19.3 0,-6.6 -0.5,-13 -1.5,-19.3 z"
         id="path548" />
    </g>
    <g
       id="g926"
       style="stroke-width:0.699217">
      <path
         style="fill:#004a97;fill-opacity:1;stroke-width:0.699217"
         d="m 498.5,576.1 c -0.6,1.1 -1.3,2.1 -2.3,2.9 -1,0.8 -2.1,1.4 -3.3,1.8 -1.2,0.4 -2.5,0.6 -3.9,0.6 -1.3,0 -2.5,-0.2 -3.6,-0.5 -1,-0.3 -2,-0.7 -2.7,-1.1 -0.8,-0.4 -1.4,-0.8 -1.9,-1.3 -0.5,-0.4 -0.9,-0.8 -1.1,-1 l 2.6,-3.4 c 0.3,0.2 0.6,0.5 1,0.9 0.4,0.3 0.9,0.7 1.5,1 0.6,0.3 1.2,0.6 1.8,0.8 0.7,0.2 1.4,0.3 2.1,0.3 0.7,0 1.4,-0.1 2.1,-0.3 0.7,-0.2 1.2,-0.5 1.7,-0.9 0.5,-0.4 0.9,-0.9 1.2,-1.5 0.3,-0.6 0.4,-1.3 0.4,-2.2 0,-0.8 -0.1,-1.5 -0.4,-2.1 -0.3,-0.6 -0.7,-1.1 -1.2,-1.5 -0.5,-0.4 -1.1,-0.7 -1.7,-0.9 -0.7,-0.2 -1.4,-0.3 -2.1,-0.3 -0.7,0 -1.4,0.1 -1.9,0.2 -0.5,0.2 -1,0.3 -1.3,0.5 -0.4,0.2 -0.8,0.4 -1,0.7 l -3.1,-1.2 2.4,-13.4 h 15 v 4.1 h -11.1 l -1.1,6.1 c 0.3,-0.1 0.6,-0.3 0.9,-0.4 0.3,-0.1 0.7,-0.2 1.2,-0.3 0.5,-0.1 1,-0.1 1.7,-0.1 1.1,0 2.3,0.2 3.3,0.5 1.1,0.3 2.1,0.8 2.9,1.5 0.9,0.7 1.6,1.6 2.1,2.7 0.5,1.1 0.8,2.4 0.8,3.9 -0.2,1.4 -0.5,2.7 -1,3.9 z"
         id="path556" />
      <path
         id="path554"
         style="fill:#004a97;fill-opacity:1;stroke-width:0.699217"
         d="m 467.79838,553.79924 c -1.5,0 -2.89688,0.19922 -4.09688,0.69922 -1.2,0.5 -2.20053,1.20262 -3.00053,2.00262 -0.9,0.8 -1.50079,1.7987 -1.90078,2.8987 -0.4,1.1 -0.60079,2.30132 -0.60079,3.60132 0,1.29999 0.20079,2.49948 0.60079,3.49948 0.39999,1 1.00052,1.90001 1.70052,2.60001 0.8,0.7 1.60001,1.1987 2.60001,1.5987 0.9,0.4 1.99896,0.60078 3.09896,0.60078 1.1,0 2.0987,-0.10052 2.8987,-0.40052 0.8,-0.3 1.50105,-0.59948 2.10105,-0.89948 0.7,-0.4 1.20053,-0.8 1.70053,-1.3 0,1 -0.10026,1.80157 -0.20026,2.50157 -0.1,0.7 -0.29896,1.39739 -0.49896,1.89739 -0.2,0.5 -0.39922,1.00183 -0.69922,1.40183 -0.2,0.4 -0.50104,0.69792 -0.80104,0.99792 -0.6,0.6 -1.20079,1 -1.90079,1.3 -0.7,0.3 -1.49975,0.40052 -2.39975,0.40052 -0.4,0 -0.89843,0.002 -1.39843,-0.0984 -0.5,-0.1 -1.00027,-0.30052 -1.50027,-0.40052 -0.5,-0.1 -1.40183,-0.60079 -1.40183,-0.60079 l -1.19818,-0.89948 -2.10104,3.60132 c 0.39999,0.4 0.89843,0.69791 1.39843,0.99791 0.5,0.3 1.10053,0.50105 1.70053,0.80105 0.6,0.3 1.30105,0.50078 2.10105,0.60078 0.8,0.1 1.59818,0.20026 2.49818,0.20026 0.9,0 1.70157,-2.6e-4 2.50157,-0.20026 0.7,-0.2 1.40105,-0.40261 2.10105,-0.70261 0.7,-0.2 1.29896,-0.59791 1.79896,-0.99791 0.5,-0.4 1.00027,-0.80001 1.50026,-1.30001 0.4,-0.5 0.90001,-1.09896 1.30001,-1.79896 0.4,-0.8 0.79974,-1.60157 1.09974,-2.50157 0.3,-1 0.60105,-1.99897 0.80105,-3.09896 0.1,-1.2 0.20052,-2.40106 0.40052,-3.40106 0,-1.3 -0.10026,-2.49948 -0.20026,-3.49948 -0.2,-1 -0.40079,-1.90184 -0.60079,-2.70184 -0.2,-0.8 -0.50104,-1.49922 -0.80104,-1.99922 -0.2,-0.6 -0.50105,-0.99844 -0.80105,-1.39844 -0.3,-0.4 -0.69974,-0.8 -1.09974,-1.3 -0.4,-0.5 -0.9987,-0.9 -1.5987,-1.3 -0.6,-0.4 -1.29948,-0.70131 -2.19948,-1.00131 -0.8,-0.3 -1.8021,-0.40053 -2.9021,-0.40053 z m -0.0984,3.90001 c 0.8,0 1.50105,0.20236 2.10105,0.50236 0.6,0.3 1.10026,0.79843 1.50026,1.39843 0.4,0.6 0.69792,1.29923 0.99792,1.99922 0.19999,0.9 0.30208,1.70184 0.30208,2.70184 -0.39999,0.6 -0.8,1.10026 -1.3,1.50026 -0.4,0.4 -0.90026,0.69792 -1.50026,0.99792 -0.6,0.3 -1.30105,0.50235 -2.10105,0.50235 -0.8,0 -1.39923,-0.20052 -1.99923,-0.40052 -0.59999,-0.2 -1.00183,-0.60131 -1.40183,-1.00131 -0.3,-0.4 -0.59765,-0.90027 -0.79765,-1.50027 -0.2,-0.6 -0.30209,-1.20079 -0.30209,-1.90079 0,-0.69999 0.10209,-1.29739 0.30209,-1.89739 0.1,-0.5 0.39765,-1.10026 0.79765,-1.50026 0.4,-0.4 0.80184,-0.70131 1.40183,-1.00131 0.6,-0.3 1.19923,-0.40053 1.99923,-0.40053 z" />
      <path
         id="path552"
         style="fill:#004a97;fill-opacity:1;stroke-width:0.699217"
         d="m 446.00041,553.99951 c -1.3,0 -2.50131,0.19895 -3.60131,0.49895 -1.1,0.3 -2.0987,0.80184 -2.8987,1.40183 -0.8,0.6 -1.40079,1.29949 -1.90079,2.19949 -0.5,0.9 -0.69922,1.90053 -0.69922,3.00053 0,0.7 0.0987,1.39922 0.2987,1.99922 0.2,0.5 0.39921,1.10026 0.69921,1.50026 0.3,0.4 0.60288,0.79975 0.90288,1.09975 0.4,0.4 0.69791,0.60104 0.99791,0.80104 0.4,0.1 0.59948,0.30053 0.89948,0.40053 0.2,0.1 0.40235,0.20026 0.50235,0.20026 -0.2,0.1 -0.40261,0.19869 -0.70261,0.29869 -0.3,0.1 -0.59791,0.29896 -0.99791,0.49896 -0.4,0.2 -0.80157,0.50105 -1.20157,0.80105 -0.4,0.3 -0.79974,0.70157 -1.09974,1.20157 -0.3,0.4 -0.59766,0.99869 -0.79766,1.59869 -0.2,0.6 -0.30209,1.30105 -0.30209,2.10105 0,1.2 0.19922,2.1974 0.69922,3.1974 0.5,1 1.10262,1.80157 2.00262,2.50157 0.8,0.7 1.89896,1.1987 3.09896,1.5987 1.2,0.4 2.60028,0.60079 4.10027,0.60079 1.5,0 2.90028,-0.20079 4.10028,-0.60079 1.19999,-0.4 2.19896,-0.8987 3.09896,-1.5987 0.9,-0.7 1.49922,-1.50157 1.99922,-2.50157 0.5,-1 0.69948,-2.0987 0.89948,-2.8987 0,-0.8 -0.0987,-1.50105 -0.29869,-2.10105 -0.2,-0.6 -0.50105,-1.20053 -0.80105,-1.70053 -0.4,-0.5 -0.69974,-0.9 -1.09974,-1.3 -0.4,-0.4 -0.79818,-0.69948 -1.19818,-0.89948 -0.4,-0.2 -0.69974,-0.39739 -1.09974,-0.59739 -0.4,-0.2 -0.69948,-0.30052 -0.89948,-0.40052 0.8,-0.3 1.59948,-0.70157 2.19948,-1.20157 l 0.79766,-0.80105 c 0.3,-0.3 0.50261,-0.59791 0.70261,-0.99791 0.2,-0.3 0.39896,-0.70157 0.49896,-1.20157 0.1,-0.5 0.20026,-0.9987 0.20026,-1.5987 0,-1.1 -0.19922,-2.10053 -0.69922,-3.00053 -0.4,-0.8 -1.10079,-1.59949 -1.90079,-2.19949 -0.8,-0.59999 -1.8021,-1.10183 -2.9021,-1.40183 -1.09999,-0.3 -2.29792,-0.49895 -3.59792,-0.49895 z m -0.10182,3.40105 c 0.6,0 1.10209,2.6e-4 1.60209,0.20026 0.5,0.2 0.9,0.39922 1.3,0.69922 0.4,0.3 0.69948,0.69974 0.89948,1.09974 0.2,0.5 0.2987,0.9987 0.2987,1.5987 0,0.6 -0.0987,1.10028 -0.2987,1.50026 -0.2,0.4 -0.50104,0.79975 -0.80104,1.09975 -0.3,0.3 -0.69975,0.60104 -1.09975,0.80104 -0.4,0.2 -0.9,0.39896 -1.3,0.49896 l -0.89948,-0.2987 c -0.4,-0.1 -0.9,-0.20052 -1.3,-0.40052 -0.4,-0.2 -0.80157,-0.39922 -1.20157,-0.69922 -0.4,-0.3 -0.69948,-0.69974 -0.89948,-1.09974 -0.3,-0.4 -0.40053,-0.90026 -0.40053,-1.50026 0,-0.6 0.10209,-1.10027 0.30209,-1.50027 0.2,-0.5 0.49948,-0.79974 0.89948,-1.09974 0.4,-0.3 0.80001,-0.59922 1.30001,-0.69922 0.5,-0.1 0.9987,-0.20026 1.5987,-0.20026 z m -0.69922,11.20107 0.89948,0.19687 c 0.4,0.1 1.00026,0.30235 1.50026,0.50235 0.5,0.2 1.00027,0.49948 1.50027,0.89948 0.4,0.4 0.79974,0.8 1.09974,1.3 0.3,0.5 0.50078,1.10053 0.60078,1.70053 0,0.7 -0.20052,1.29896 -0.40052,1.79896 -0.2,0.5 -0.59791,0.9 -0.99791,1.3 -0.4,0.3 -0.90027,0.60105 -1.50027,0.80105 -0.6,0.2 -1.20079,0.2987 -1.90079,0.2987 -0.6,0 -1.19896,-0.0987 -1.79896,-0.2987 -0.6,-0.2 -1.10026,-0.40105 -1.50026,-0.80105 -0.4,-0.3 -0.80131,-0.8 -1.00131,-1.3 -0.3,-0.5 -0.40052,-1.09896 -0.40052,-1.79896 0,-0.7 0.20052,-1.30235 0.40052,-1.80235 0.2,-0.5 0.49948,-0.90001 0.89948,-1.30001 0.4,-0.3 0.8,-0.69948 1.3,-0.89948 0.4,-0.2 0.90001,-0.39739 1.30001,-0.59739 z" />
      <path
         style="fill:#004a97;fill-opacity:1;stroke-width:0.699217"
         d="m 432.8,580.8 h -13 V 577 h 3.9 v -16.9 c -0.2,0.2 -0.5,0.4 -0.8,0.6 -0.4,0.2 -0.8,0.4 -1.2,0.5 -0.4,0.2 -0.8,0.3 -1.3,0.4 -0.5,0.1 -0.8,0.2 -1.1,0.2 l -1.1,-3.7 c 0.6,-0.1 1.3,-0.3 2,-0.6 0.7,-0.3 1.3,-0.6 1.8,-0.9 0.2,-0.1 0.5,-0.3 0.8,-0.5 0.3,-0.2 0.5,-0.4 0.8,-0.7 0.3,-0.2 0.5,-0.5 0.7,-0.7 0.2,-0.2 0.3,-0.5 0.4,-0.7 h 4.3 v 23 h 3.9 v 3.8 z"
         id="path550" />
    </g>
  </g>
</svg>
